<svg width="246" height="226" viewBox="0 0 246 226" fill="none" xmlns="http://www.w3.org/2000/svg">
<path d="M156.354 82C162.47 82 168.336 84.4298 172.661 88.7549C176.986 93.0799 179.416 98.9459 179.416 105.062V169.115C179.416 184.069 173.475 198.411 162.901 208.985C152.327 219.559 137.985 225.5 123.031 225.5C108.076 225.5 93.7346 219.559 83.1604 208.985C72.5861 198.411 66.6455 184.069 66.6455 169.115V105.062C66.6455 98.9459 69.0753 93.0799 73.4004 88.7549C77.7254 84.4298 83.5914 82 89.708 82H156.354ZM156.354 97.375H89.708C87.6691 97.375 85.7138 98.1849 84.2721 99.6266C82.8304 101.068 82.0205 103.024 82.0205 105.062V169.115C82.0205 179.991 86.3412 190.422 94.0321 198.113C101.723 205.804 112.154 210.125 123.031 210.125C133.907 210.125 144.338 205.804 152.029 198.113C159.72 190.422 164.041 179.991 164.041 169.115V105.062C164.041 103.024 163.231 101.068 161.789 99.6266C160.348 98.1849 158.392 97.375 156.354 97.375ZM23.0625 82H65.6615C61.5463 86.2846 58.6546 91.5938 57.2873 97.375H23.0625C21.0237 97.375 19.0683 98.1849 17.6266 99.6266C16.1849 101.068 15.375 103.024 15.375 105.062V158.865C15.3736 164.008 16.6618 169.069 19.1217 173.586C21.5815 178.102 25.1346 181.93 29.4558 184.718C33.7771 187.507 38.7286 189.168 43.8574 189.549C48.9863 189.93 54.1288 189.018 58.8145 186.898C60.1778 191.921 62.1355 196.697 64.5955 201.166C57.5729 204.233 49.8972 205.501 42.2615 204.858C34.6257 204.214 27.2705 201.679 20.86 197.481C14.4496 193.283 9.18567 187.554 5.54374 180.812C1.90182 174.07 -0.00344701 166.528 4.68161e-06 158.865V105.062C4.68161e-06 98.9459 2.4298 93.0799 6.75485 88.7549C11.0799 84.4298 16.9459 82 23.0625 82ZM222.938 82C229.054 82 234.92 84.4298 239.245 88.7549C243.57 93.0799 246 98.9459 246 105.062V158.875C246.003 166.533 244.099 174.072 240.46 180.811C236.821 187.549 231.561 193.276 225.156 197.473C218.75 201.671 211.4 204.207 203.769 204.854C196.138 205.5 188.466 204.237 181.445 201.177L182.02 200.131C184.213 195.97 185.986 191.552 187.257 186.919C191.94 189.026 197.077 189.927 202.197 189.539C207.318 189.151 212.26 187.487 216.573 184.699C220.885 181.91 224.43 178.086 226.885 173.575C229.339 169.064 230.625 164.01 230.625 158.875V105.062C230.625 103.025 229.816 101.072 228.377 99.6302C226.938 98.1888 224.985 97.3777 222.948 97.375H188.784C187.415 91.5925 184.519 86.2831 180.4 82H222.948H222.938ZM123 0C127.711 -9.92805e-08 132.376 0.927934 136.729 2.73082C141.081 4.53371 145.036 7.17624 148.367 10.5075C151.699 13.8388 154.341 17.7937 156.144 22.1462C157.947 26.4988 158.875 31.1638 158.875 35.875C158.875 40.5862 157.947 45.2512 156.144 49.6038C154.341 53.9563 151.699 57.9112 148.367 61.2425C145.036 64.5738 141.081 67.2163 136.729 69.0192C132.376 70.8221 127.711 71.75 123 71.75C113.485 71.75 104.36 67.9703 97.6325 61.2425C90.9047 54.5146 87.125 45.3896 87.125 35.875C87.125 26.3604 90.9047 17.2354 97.6325 10.5075C104.36 3.77968 113.485 2.00506e-07 123 0ZM205.031 10.25C209.069 10.25 213.068 11.0454 216.798 12.5907C220.529 14.136 223.919 16.4011 226.774 19.2565C229.63 22.1119 231.895 25.5017 233.44 29.2325C234.985 32.9632 235.781 36.9619 235.781 41C235.781 45.0381 234.985 49.0368 233.44 52.7675C231.895 56.4983 229.63 59.8881 226.774 62.7435C223.919 65.5989 220.529 67.864 216.798 69.4093C213.068 70.9546 209.069 71.75 205.031 71.75C196.875 71.75 189.054 68.5103 183.287 62.7435C177.52 56.9768 174.281 49.1554 174.281 41C174.281 32.8446 177.52 25.0232 183.287 19.2565C189.054 13.4897 196.875 10.25 205.031 10.25ZM40.9693 10.25C45.0074 10.25 49.006 11.0454 52.7368 12.5907C56.4675 14.136 59.8574 16.4011 62.7128 19.2565C65.5682 22.1119 67.8332 25.5017 69.3785 29.2325C70.9239 32.9632 71.7193 36.9619 71.7193 41C71.7193 45.0381 70.9239 49.0368 69.3785 52.7675C67.8332 56.4983 65.5682 59.8881 62.7128 62.7435C59.8574 65.5989 56.4675 67.864 52.7368 69.4093C49.006 70.9546 45.0074 71.75 40.9693 71.75C32.8139 71.75 24.9925 68.5103 19.2257 62.7435C13.459 56.9768 10.2193 49.1554 10.2193 41C10.2193 32.8446 13.459 25.0232 19.2257 19.2565C24.9925 13.4897 32.8139 10.25 40.9693 10.25ZM123 15.375C117.563 15.375 112.349 17.5348 108.504 21.3793C104.66 25.2238 102.5 30.4381 102.5 35.875C102.5 41.3119 104.66 46.5262 108.504 50.3707C112.349 54.2152 117.563 56.375 123 56.375C128.437 56.375 133.651 54.2152 137.496 50.3707C141.34 46.5262 143.5 41.3119 143.5 35.875C143.5 30.4381 141.34 25.2238 137.496 21.3793C133.651 17.5348 128.437 15.375 123 15.375ZM205.031 25.625C203.012 25.625 201.012 26.0227 199.147 26.7954C197.282 27.568 195.587 28.7005 194.159 30.1282C192.731 31.5559 191.599 33.2509 190.826 35.1162C190.053 36.9816 189.656 38.9809 189.656 41C189.656 43.0191 190.053 45.0184 190.826 46.8838C191.599 48.7491 192.731 50.4441 194.159 51.8718C195.587 53.2995 197.282 54.432 199.147 55.2047C201.012 55.9773 203.012 56.375 205.031 56.375C209.108 56.375 213.019 54.7551 215.903 51.8718C218.786 48.9884 220.406 45.0777 220.406 41C220.406 36.9223 218.786 33.0116 215.903 30.1282C213.019 27.2449 209.108 25.625 205.031 25.625ZM40.9693 25.625C38.9502 25.625 36.9509 26.0227 35.0855 26.7954C33.2201 27.568 31.5252 28.7005 30.0975 30.1282C28.6698 31.5559 27.5373 33.2509 26.7646 35.1162C25.9919 36.9816 25.5943 38.9809 25.5943 41C25.5943 43.0191 25.9919 45.0184 26.7646 46.8838C27.5373 48.7491 28.6698 50.4441 30.0975 51.8718C31.5252 53.2995 33.2201 54.432 35.0855 55.2047C36.9509 55.9773 38.9502 56.375 40.9693 56.375C45.047 56.375 48.9576 54.7551 51.841 51.8718C54.7244 48.9884 56.3443 45.0777 56.3443 41C56.3443 36.9223 54.7244 33.0116 51.841 30.1282C48.9576 27.2449 45.047 25.625 40.9693 25.625Z" fill="#6E90A0"/>
</svg>
